<?xml version="1.0" encoding="UTF-8"?>
<!DOCTYPE svg PUBLIC "-//W3C//DTD SVG 1.1//EN" "http://www.w3.org/Graphics/SVG/1.1/DTD/svg11.dtd">
<svg xmlns="http://www.w3.org/2000/svg" version="1.1" width="512px" height="512px" style="shape-rendering:geometricPrecision; text-rendering:geometricPrecision; image-rendering:optimizeQuality; fill-rule:evenodd; clip-rule:evenodd" xmlns:xlink="http://www.w3.org/1999/xlink">
<g><path style="opacity:0.997" fill="#fc445e" d="M 69.5,-0.5 C 78.5,-0.5 87.5,-0.5 96.5,-0.5C 133.463,7.7966 156.13,30.4633 164.5,67.5C 134.57,87.6815 112.403,114.348 98,147.5C 91.3247,163.868 87.3247,180.868 86,198.5C 85.5,266.833 85.3333,335.166 85.5,403.5C 49.8427,393.341 28.676,370.008 22,333.5C 21.6667,311.833 21.3333,290.167 21,268.5C 10.0785,255.99 2.91187,241.657 -0.5,225.5C -0.5,173.5 -0.5,121.5 -0.5,69.5C 7.83333,31.1667 31.1667,7.83333 69.5,-0.5 Z"/></g>
<g><path style="opacity:0.997" fill="#e01059" d="M 414.5,-0.5 C 423.5,-0.5 432.5,-0.5 441.5,-0.5C 479.833,7.83333 503.167,31.1667 511.5,69.5C 511.5,121.5 511.5,173.5 511.5,225.5C 508.088,241.657 500.921,255.99 490,268.5C 489.667,290.167 489.333,311.833 489,333.5C 482.324,370.008 461.157,393.341 425.5,403.5C 425.667,334.833 425.5,266.166 425,197.5C 418.459,142.048 392.292,98.7142 346.5,67.5C 354.87,30.4633 377.537,7.7966 414.5,-0.5 Z"/></g>
<g><path style="opacity:1" fill="#fdd645" d="M 255.5,41.5 C 255.5,84.5 255.5,127.5 255.5,170.5C 239.236,171.551 228.736,179.884 224,195.5C 223.5,202.158 223.334,208.825 223.5,215.5C 213.351,180.744 190.351,166.911 154.5,174C 125.365,187.104 114.532,209.271 122,240.5C 136.669,271.913 160.502,282.08 193.5,271C 210.223,262.351 220.223,248.851 223.5,230.5C 223.5,262.5 223.5,294.5 223.5,326.5C 201.497,326.333 179.497,326.5 157.5,327C 128.419,336.002 116.253,355.502 121,385.5C 126.784,404.283 139.284,415.783 158.5,420C 180.164,420.5 201.831,420.667 223.5,420.5C 227.421,437.416 238.088,446.416 255.5,447.5C 255.5,468.833 255.5,490.167 255.5,511.5C 198.833,511.5 142.167,511.5 85.5,511.5C 85.5,475.5 85.5,439.5 85.5,403.5C 85.3333,335.166 85.5,266.833 86,198.5C 87.3247,180.868 91.3247,163.868 98,147.5C 112.403,114.348 134.57,87.6815 164.5,67.5C 192.311,50.3449 222.644,41.6783 255.5,41.5 Z"/></g>
<g><path style="opacity:0.999" fill="#fdb254" d="M 255.5,41.5 C 288.369,41.6309 318.703,50.2976 346.5,67.5C 392.292,98.7142 418.459,142.048 425,197.5C 425.5,266.166 425.667,334.833 425.5,403.5C 425.5,439.5 425.5,475.5 425.5,511.5C 368.833,511.5 312.167,511.5 255.5,511.5C 255.5,490.167 255.5,468.833 255.5,447.5C 272.93,446.397 283.596,437.397 287.5,420.5C 308.503,420.667 329.503,420.5 350.5,420C 376.546,414.791 390.212,398.958 391.5,372.5C 389.505,347.998 376.505,332.831 352.5,327C 330.836,326.5 309.169,326.333 287.5,326.5C 287.5,294.5 287.5,262.5 287.5,230.5C 295.23,262.383 315.563,277.217 348.5,275C 368.177,270.65 381.677,259.15 389,240.5C 396.151,213.944 388.317,193.111 365.5,178C 337.94,165.575 314.773,171.075 296,194.5C 292.469,200.62 289.636,206.953 287.5,213.5C 290.522,192.411 282.189,178.244 262.5,171C 260.19,170.503 257.857,170.337 255.5,170.5C 255.5,127.5 255.5,84.5 255.5,41.5 Z"/></g>
<g><path style="opacity:1" fill="#fb445e" d="M 223.5,215.5 C 223.5,220.5 223.5,225.5 223.5,230.5C 220.223,248.851 210.223,262.351 193.5,271C 160.502,282.08 136.669,271.913 122,240.5C 114.532,209.271 125.365,187.104 154.5,174C 190.351,166.911 213.351,180.744 223.5,215.5 Z"/></g>
<g><path style="opacity:1" fill="#049ae3" d="M 255.5,170.5 C 255.5,262.833 255.5,355.167 255.5,447.5C 238.088,446.416 227.421,437.416 223.5,420.5C 223.5,410.5 223.5,400.5 223.5,390.5C 223.5,379.167 223.5,367.833 223.5,356.5C 223.5,346.5 223.5,336.5 223.5,326.5C 223.5,294.5 223.5,262.5 223.5,230.5C 223.5,225.5 223.5,220.5 223.5,215.5C 223.334,208.825 223.5,202.158 224,195.5C 228.736,179.884 239.236,171.551 255.5,170.5 Z"/></g>
<g><path style="opacity:1" fill="#0379c1" d="M 255.5,170.5 C 257.857,170.337 260.19,170.503 262.5,171C 282.189,178.244 290.522,192.411 287.5,213.5C 287.5,219.167 287.5,224.833 287.5,230.5C 287.5,262.5 287.5,294.5 287.5,326.5C 287.5,336.5 287.5,346.5 287.5,356.5C 287.5,367.833 287.5,379.167 287.5,390.5C 287.5,400.5 287.5,410.5 287.5,420.5C 283.596,437.397 272.93,446.397 255.5,447.5C 255.5,355.167 255.5,262.833 255.5,170.5 Z"/></g>
<g><path style="opacity:1" fill="#df1259" d="M 287.5,230.5 C 287.5,224.833 287.5,219.167 287.5,213.5C 289.636,206.953 292.469,200.62 296,194.5C 314.773,171.075 337.94,165.575 365.5,178C 388.317,193.111 396.151,213.944 389,240.5C 381.677,259.15 368.177,270.65 348.5,275C 315.563,277.217 295.23,262.383 287.5,230.5 Z"/></g>
<g><path style="opacity:1" fill="#0b4b81" d="M 165.5,201.5 C 188.474,201.476 196.974,212.476 191,234.5C 182.37,246.123 171.537,248.623 158.5,242C 149.213,233.784 147.046,223.95 152,212.5C 155.336,207.269 159.836,203.602 165.5,201.5 Z"/></g>
<g><path style="opacity:1" fill="#072b67" d="M 333.5,201.5 C 352.822,200.323 361.989,209.323 361,228.5C 356.507,242.338 347.007,247.838 332.5,245C 319.165,238.825 314.665,228.658 319,214.5C 322.329,208.43 327.162,204.096 333.5,201.5 Z"/></g>
<g><path style="opacity:1" fill="#fb445e" d="M 223.5,326.5 C 223.5,336.5 223.5,346.5 223.5,356.5C 202.831,356.333 182.164,356.5 161.5,357C 148.876,362.995 146.042,372.162 153,384.5C 155.564,386.727 158.397,388.561 161.5,390C 182.164,390.5 202.831,390.667 223.5,390.5C 223.5,400.5 223.5,410.5 223.5,420.5C 201.831,420.667 180.164,420.5 158.5,420C 139.284,415.783 126.784,404.283 121,385.5C 116.253,355.502 128.419,336.002 157.5,327C 179.497,326.5 201.497,326.333 223.5,326.5 Z"/></g>
<g><path style="opacity:1" fill="#e01159" d="M 287.5,326.5 C 309.169,326.333 330.836,326.5 352.5,327C 376.505,332.831 389.505,347.998 391.5,372.5C 390.212,398.958 376.546,414.791 350.5,420C 329.503,420.5 308.503,420.667 287.5,420.5C 287.5,410.5 287.5,400.5 287.5,390.5C 307.503,390.667 327.503,390.5 347.5,390C 358.733,386.72 363.233,379.22 361,367.5C 358.668,361.836 354.501,358.336 348.5,357C 328.169,356.5 307.836,356.333 287.5,356.5C 287.5,346.5 287.5,336.5 287.5,326.5 Z"/></g>
<g><path style="opacity:1" fill="#064b81" d="M 223.5,356.5 C 223.5,367.833 223.5,379.167 223.5,390.5C 202.831,390.667 182.164,390.5 161.5,390C 158.397,388.561 155.564,386.727 153,384.5C 146.042,372.162 148.876,362.995 161.5,357C 182.164,356.5 202.831,356.333 223.5,356.5 Z"/></g>
<g><path style="opacity:1" fill="#042b67" d="M 287.5,356.5 C 307.836,356.333 328.169,356.5 348.5,357C 354.501,358.336 358.668,361.836 361,367.5C 363.233,379.22 358.733,386.72 347.5,390C 327.503,390.5 307.503,390.667 287.5,390.5C 287.5,379.167 287.5,367.833 287.5,356.5 Z"/></g>
</svg>
